Coordinates
nRows=10
nColumns=24

# SIMM Motion File Header:
name Coordinates
datacolumns 24
datarows 10
otherdata 1
range 0.57133000000000000000 0.58033000000000001000

Units are S.I. units (second, meters, Newtons, ...)
Angles are in degrees.

endheader
time	pelvis_tx	pelvis_ty	pelvis_tz	pelvis_tilt	pelvis_list	pelvis_rotation	hip_flexion_r	hip_adduction_r	hip_rotation_r	knee_angle_r	ankle_angle_r	subtalar_angle_r	mtp_angle_r	hip_flexion_l	hip_adduction_l	hip_rotation_l	knee_angle_l	ankle_angle_l	subtalar_angle_l	mtp_angle_l	lumbar_extension	lumbar_bending	lumbar_rotation
      0.57133000000000000000	      1.82048748123998630000	      0.70124276878373626000	     -0.18423569390348546000	     -3.84317074546318650000	      2.81558225169284390000	     -1.83012989096379040000	    -21.62815827139158400000	     -1.04956101477684770000	      0.27259616306549428000	    -16.81854582627768800000	     -9.50951852352816300000	     -0.00000000000014875806	     -0.00000000000030443996	     34.53040045454675800000	      3.24332871839125000000	     -6.86342346253929310000	    -17.39537393478750700000	     -8.51143603700527150000	     -0.00000000000001428891	     -0.00000000000000876187	     -1.59317540280492610000	     -7.36570109755440590000	     10.18985730117293000000
      0.57233000000000001000	      1.82208599716765950000	      0.70136359849474750000	     -0.18447107973255564000	     -3.84476901983180010000	      2.87684280655705480000	     -1.77267390382711400000	    -21.54918523871690900000	     -1.13236008060569730000	      0.21552944721873024000	    -17.09320064175301800000	     -9.87328855673385420000	     -0.00000000000014915983	     -0.00000000000030548710	     34.48833993242699600000	      3.36943707286516280000	     -6.76940317632908340000	    -17.54053465462806100000	     -8.51850226026548900000	     -0.00000000000001421503	     -0.00000000000000913810	     -1.57544367750441960000	     -7.43471401663891210000	     10.13332746334077300000
      0.57333000000000001000	      1.82368187398223960000	      0.70148697722984932000	     -0.18470735363380600000	     -3.84595506468044190000	      2.93800107258071910000	     -1.71581978735324660000	    -21.46803687737256500000	     -1.21575336438566640000	      0.16030958864401734000	    -17.37066927289854200000	    -10.23746191952913500000	     -0.00000000000014954913	     -0.00000000000030650812	     34.44480534392257500000	      3.49547124203723670000	     -6.67470799608868590000	    -17.68437275382649800000	     -8.52169459638193770000	     -0.00000000000001416040	     -0.00000000000000955378	     -1.55874375273992970000	     -7.50298753693424560000	     10.07674090618879600000
      0.57433000000000001000	      1.82527503853100660000	      0.70161286543094792000	     -0.18494442471521019000	     -3.84675304812139230000	      2.99902258749733000000	     -1.65960047909071150000	    -21.38468258977788800000	     -1.29970267846805120000	      0.10696600410352607000	    -17.65093210523604500000	    -10.60184145640669200000	     -0.00000000000014992647	     -0.00000000000030753224	     34.39981251145305000000	      3.62136441267557710000	     -6.57939653759681780000	    -17.82686291249299200000	     -8.52101081033096190000	     -0.00000000000001410920	     -0.00000000000000998358	     -1.54304464662979930000	     -7.57048581509042950000	     10.02013349390568600000
      0.57533000000000001000	      1.82686541650643600000	      0.70174122462051280000	     -0.18518220074234162000	     -3.84718812910929580000	      3.05987211626515830000	     -1.60404770556742050000	    -21.29909166517179700000	     -1.38416804947642990000	      0.05552387344179744000	    -17.93396826389511700000	    -10.96622622819359100000	     -0.00000000000015031597	     -0.00000000000030851742	     34.35337828930850200000	      3.74704901432978990000	     -6.48352941327701960000	    -17.96797920354744000000	     -8.51645399439240690000	     -0.00000000000001403051	     -0.00000000000001042906	     -1.52831399574885230000	     -7.63717312351708610000	      9.96354080270233310000
      0.57633000000000001000	      1.82845293242099020000	      0.70187201710188496000	     -0.18542058824977214000	     -3.84728640575539100000	      3.12051368529476480000	     -1.54919192063925550000	    -21.21123334003776500000	     -1.46910776696686020000	      0.00600404492744417450	    -18.21975564673146400000	    -11.33041152413714900000	     -0.00000000000015071622	     -0.00000000000030949047	     34.30552052488339900000	      3.87245680106660290000	     -6.38716916378962640000	    -18.10769523090162300000	     -8.50803252153431620000	     -0.00000000000001397277	     -0.00000000000001081402	     -1.51451813823946060000	     -7.70301388972929590000	      9.90699804124468740000
      0.57733000000000001000	      1.83003750969688370000	      0.70200520574996927000	     -0.18565949268684095000	     -3.84707485799335250000	      3.18091063686148520000	     -1.49506224724892230000	    -21.12107685145082000000	     -1.55447845900882030000	     -0.04157704071486839600	    -18.50827094683151600000	    -11.69418900359311000000	     -0.00000000000015111052	     -0.00000000000031045477	     34.25625802407335400000	      3.99751895540642410000	     -6.29038014596977210000	    -18.24598419363847100000	     -8.49576004926909970000	     -0.00000000000001389383	     -0.00000000000001119005	     -1.50162219908181990000	     -7.76797274862661260000	      9.85053996714072970000
      0.57833000000000001000	      1.83161907090936780000	      0.70214075391865816000	     -0.18589881860792259000	     -3.84658128824208400000	      3.24102570857666090000	     -1.44168641148078060000	    -21.02859147871967200000	     -1.64023519747104760000	     -0.08720743988080172100	    -18.79948964784523800000	    -12.05734714002429400000	     -0.00000000000015149164	     -0.00000000000031144962	     34.20561052499160600000	      4.12216622635165740000	     -6.19322834487541660000	    -18.38281878985476000000	     -8.47965543042511170000	     -0.00000000000001382594	     -0.00000000000001157372	     -1.48959017159957250000	     -7.83201461539653020000	      9.79420079030128040000
      0.57933000000000001000	      1.83319753808386010000	      0.70227862537632457000	     -0.18613846985539942000	     -3.84583425602070280000	      3.30082110165079090000	     -1.38909068680966020000	    -20.93374658516611900000	     -1.72633159253050780000	     -0.13087976492325434000	    -19.09338602937006300000	    -12.41967152509642200000	     -0.00000000000015187247	     -0.00000000000031242757	     34.15359867302589000000	      4.24632904918561940000	     -6.09578121817383160000	    -18.51817122773177400000	     -8.45974259485459970000	     -0.00000000000001378464	     -0.00000000000001201934	     -1.47838500129903230000	     -7.89510474378656560000	      9.73801408635627830000
      0.58033000000000001000	      1.83477283299674880000	      0.70241878424362858000	     -0.18637834973641293000	     -3.84486301171863550000	      3.36025854614170210000	     -1.33729984058498760000	    -20.83651166034730900000	     -1.81271988397345730000	     -0.17259123616081351000	    -19.38993317615608400000	    -12.78094512490420300000	     -0.00000000000015224913	     -0.00000000000031339267	     34.10024399601314100000	      4.36993766024488290000	     -5.99810755062548750000	    -18.65201326474629400000	     -8.43605044860432680000	     -0.00000000000001373069	     -0.00000000000001248760	     -1.46796867027021840000	     -7.95720878089988480000	      9.68201271252774550000
